<?xml version="1.0" encoding="utf-8"?>
<!-- Generator: Adobe Illustrator 22.0.1, SVG Export Plug-In . SVG Version: 6.00 Build 0)  -->
<svg version="1.1" id="Calque_1" xmlns="http://www.w3.org/2000/svg" xmlns:xlink="http://www.w3.org/1999/xlink" x="0px" y="0px"
	 viewBox="0 0 273.9 299.7" style="enable-background:new 0 0 273.9 299.7;" xml:space="preserve">
<style type="text/css">
	.st0{fill:#7D7D7D;}
	.st1{fill:none;}
	.st2{fill:#51AFAD;}
</style>
<title>svgPlan de travail 1</title>
<polygon class="st0" points="127.5,299.7 201.7,159.9 127.5,203.1 53.2,159.9 "/>
<path class="st0" d="M82.9,174.8c5.4-1.3,10.7-3.1,15.8-5.5c-6.3-5.6-10.9-13-13.1-21.2c-6.4,2-13,2.8-19.7,2.2
	c-5.7-0.6-11.2-2.4-16.2-5.2c1.6,10.9,5.5,21.4,11.5,30.7C68.5,176.8,75.8,176.4,82.9,174.8z"/>
<path class="st1" d="M130.7,149c-7.5,5.8-15.3,11.1-23.4,15.9c-2.8,1.6-5.6,3.1-8.6,4.4c17.9,15.9,45.3,14.2,61.2-3.7
	c10.2-11.5,13.5-27.5,8.8-42.1c-5.3,2.6-10.3,5.6-15.1,9C146.3,137.6,138.8,143.1,130.7,149z"/>
<path class="st1" d="M84.1,136.9c0,3.8,0.5,7.6,1.5,11.2c0.7-0.2,1.4-0.4,2.2-0.6c7.3-2.7,14.2-6.3,20.6-10.8
	c6.4-4.3,13.1-9.1,20.3-14.3c8.2-6.2,16.8-12.3,25.4-18c0.4-0.3,0.8-0.5,1.2-0.7c-18.3-15.4-45.7-13-61.1,5.3
	C87.7,116.8,84.1,126.7,84.1,136.9z"/>
<path class="st0" d="M85.6,148.1c-6.2-23.1,7.5-46.9,30.6-53.1c13.7-3.7,28.3-0.4,39.1,8.6c7.8-5.1,16.2-9,25.1-11.7
	c4-1.2,8.2-2,12.4-2.4C168.9,53.3,120.2,43.4,84,67.3c-25.7,17-39.1,47.4-34.3,77.8c5,2.8,10.5,4.6,16.2,5.2
	C72.6,150.9,79.3,150.1,85.6,148.1z"/>
<path class="st0" d="M176.7,119.9c-2.6,1-5.3,2.2-8,3.6c7.4,22.8-5,47.2-27.8,54.6c-14.6,4.8-30.7,1.4-42.2-8.8
	c-5.1,2.3-10.3,4.2-15.8,5.5c-7.1,1.7-14.5,2-21.7,1.1c23.3,36.6,71.9,47.4,108.6,24.1c27.9-17.8,41.7-51.1,34.5-83.4
	c-1.1-0.2-2.2-0.4-3.3-0.5C192.7,115.5,184.4,116.8,176.7,119.9z"/>
<path class="st2" d="M43.1,141c-7.8-5.6-13.4-12.2-16.8-19.7c-3.2-7.2-4.8-14.9-4.9-22.7c0-7.8,1.5-15.5,4.3-22.7
	c2.6-6.9,6.1-13.5,10.4-19.6c8-11,17.5-19.4,28.5-25C67,30.1,69.5,29,72,28L85.5,2.3l-0.3-2C74.7,2.7,64.6,6.9,55.5,12.7
	C42.7,20.9,31.5,31.5,22.6,44c-6.7,9.3-12.1,19.4-16.2,30.1c-4,10.2-6,21-6,31.9c0,10.5,2.3,20.9,6.8,30.4
	c4.4,9.6,12,18.3,22.6,25.9c9.8,7.1,19.2,11.5,27.8,13c1.2,0.2,2.4,0.3,3.7,0.5c-6-9.3-9.9-19.8-11.5-30.7
	C47.5,143.9,45.2,142.5,43.1,141z"/>
<path class="st2" d="M128.7,122.4c-7.2,5.2-13.9,10-20.3,14.3c-6.4,4.5-13.3,8.1-20.6,10.8c-0.7,0.3-1.4,0.4-2.2,0.6
	c2.2,8.2,6.8,15.6,13.1,21.2c2.9-1.3,5.8-2.8,8.6-4.4c8.1-4.8,16-10.1,23.4-15.9c8.1-5.9,15.6-11.4,22.9-16.5
	c4.8-3.4,9.9-6.4,15.1-9c-2.5-7.7-7.2-14.6-13.4-19.8c-0.4,0.2-0.8,0.5-1.2,0.7C145.5,110.1,136.9,116.1,128.7,122.4z"/>
<path class="st2" d="M262.6,129.9c-5.1-9.9-13.4-19-24.5-27c-10.6-7.6-20.7-12.1-30-13.2c-5.1-0.6-10.2-0.7-15.3-0.2
	c5.5,8.2,9.4,17.3,11.5,26.9c7.9,1.3,15.4,4.5,21.8,9.4c8.3,5.9,14.2,12.9,17.7,20.6c3.3,7.3,5.1,15.3,5.1,23.4
	c0.1,7.9-1.3,15.8-4.1,23.2c-7.7,20.9-23.2,38-43.2,47.6c-2.1,1-4.2,1.9-6.3,2.7L180,272.5c11.2-2.4,21.9-6.7,31.6-12.7
	c14.7-9,27.4-20.8,37.5-34.7c7-9.7,12.6-20.3,16.6-31.6c3.8-10.5,5.6-21.6,5.2-32.7C270.5,150,267.7,139.4,262.6,129.9z"/>
<path class="st2" d="M180.5,91.9c-8.9,2.7-17.3,6.7-25.1,11.7c6.2,5.2,10.9,12.1,13.4,19.8c2.7-1.3,5.3-2.6,8-3.6
	c7.7-3,16-4.4,24.3-3.9c1.1,0.1,2.2,0.3,3.3,0.5c-2.1-9.6-6-18.8-11.5-26.9C188.6,89.9,184.5,90.7,180.5,91.9z"/>
</svg>
